<svg id="Layer_1" data-name="Layer 1" xmlns="http://www.w3.org/2000/svg" viewBox="0 0 700.19 949.19"><defs><style>.cls-1{fill:#fefefe;}.cls-2{fill:#5ca4a5;}.cls-3{fill:#5aa3a3;}.cls-4{fill:#87bcbd;}</style></defs><title>shape_try2</title><path class="cls-1" d="M-51,422.39q0-235-.09-470c0-3.75.84-4.6,4.59-4.59q345.5.15,691,0c3.75,0,4.59.84,4.59,4.59q-.15,470,0,940c0,3.75-.84,4.6-4.59,4.59q-345.49-.15-691,0c-3.75,0-4.6-.84-4.59-4.59Q-50.92,657.39-51,422.39Z" transform="translate(51.09 52.2)"/><path class="cls-2" d="M353.06,506.91c-1.8,12.15-3.49,24.33-5.42,36.46-5.48,34.47-11.08,68.92-16.6,103.38Q321.7,705,312.42,763.34c-4.1,25.45-8.23,50.9-12.54,76.31a127.56,127.56,0,0,1-5.82,21.91c-2-6.91-3.84-13.86-6-20.72-6.71-21.46-8-43.73-10.13-65.9-3.05-31.78-6.47-63.52-9.64-95.28-2.5-25-4.81-50-7.29-75-2.45-24.65-5-49.29-7.51-73.93-1.17-11.58-2.48-23.16-3.29-34.76-.32-4.63-1.61-5.15-5.7-3.51-28.07,11.31-56.09,22.76-84.4,33.45-12.48,4.72-25.6,7.75-38.18,11.48,22.32-33.75,49.35-63.28,77.8-91.6,1.14-1.13,3.21-2.08,2.83-3.81-.42-1.94-2.83-1.38-4.29-1.74-49.21-12.07-98.36-24.42-147.73-35.85-28.25-6.54-55.69-15.48-83-25-1.15-.4-2.64-.45-3.71-2.24,7.81-2.61,15.69-3.47,23.35-5.25,24-5.57,48.45-5.93,72.82-7.48,31.05-2,62.11-3.81,93.17-5.73,14.45-.89,28.89-1.92,43.35-2.69,3.4-.19,3.82-1.15,2.72-4.26-9.53-27-18.82-54-28.36-81-5.46-15.4-8.16-31.42-12-48.83,5.82,5.32,10.55,9.68,15.31,14,28.42,25.81,53.62,54.67,79,83.37,1,1.17,1.87,3.45,3.66,2.81s1-2.93,1.26-4.51q5.06-33.8,10.1-67.58,6.9-46.59,13.77-93.19c4.29-28.93,8.92-57.82,12.84-86.8,4.79-35.48,10.85-70.71,19.24-105.52.31-1.28.69-2.55,1.3-4.79,2.44,6.55,2.58,12.62,3.88,18.42,4,17.84,8.45,35.59,11.69,53.57,2.2,12.22,2.73,24.76,3.87,37.17q3,32.28,5.76,64.58c1.83,20.88,3.54,41.77,5.4,62.65,2.17,24.35,4.49,48.68,6.67,73,1.15,12.92,2.15,25.85,3.21,38.78.27,3.31.07,6.68,1.19,9.89-6.66.65-10.93,3.46-10,11,0,.2-.46.37-.82.43-2.93-.61-2.59-3.21-2.91-5.18-2-11.83-2.49-23.83-3.64-35.75-1.7-17.55-3.09-35.14-4.51-52.72-1.4-17.25-3.19-34.47-4.69-51.71s-2.82-34.5-4.48-51.73c-1.64-16.89-3.05-33.81-4.45-50.72-1.38-16.58-2.72-33.17-4.57-49.71-.31-2.83-.44-5.64-.55-8.5-1.72,10-3.16,20-4.68,30-7.42,48.91-14.24,97.92-21.63,146.83-5.75,38-11.24,76.14-16.89,114.2-1.31,8.76-3.93,17.21-6.39,25.69-1.48,5.06-3.81,5.61-8,2.22-14.08-11.29-26.54-24.22-38.45-37.75-12.08-13.72-24.22-27.4-36.94-41.55,5,14.61,10.24,28.38,14.77,42.4,5.69,17.6,10.4,35.49,16,53.11,2.14,6.76,1,8.23-5.83,9.55-13.94,2.68-28.1,3.24-42.2,4.36-18.57,1.49-37.19,2.27-55.77,3.65-13.26,1-26.56,1.68-39.86,2.32-13.95.68-27.88,1.75-41.81,2.76a58.74,58.74,0,0,1-13.45-.14c-.65,0,.2-.13-.45,0-1,.18-2.2-.72-2.83.72.4-1,1.33-.6,2.07-.73,10.91,1.6,21.46,4.82,32.13,7.39C90.56,399,135,409.59,179.17,421c13.08,3.37,25.67,8.32,38.43,12.71,5.68,1.95,6,3.72,2.74,8.83A106.47,106.47,0,0,1,206.28,460c-16.8,17.11-33.32,34.48-50.3,52.23,23.66-9,46.47-18.51,69.4-27.7,9.69-3.89,20-5.1,30-7.45,4.15-1,5.65,1.19,6.14,5,2.74,21.31,6,42.54,7.89,64,1.94,22,4.69,44,6.66,66.07,2.3,25.7,5.08,51.35,7.5,77,1.64,17.39,3.67,34.77,5.29,52.16,1.59,17,3.92,34,4.66,49.44C304,727.12,314,661.61,324.61,596.19c5.29-32.72,9.75-65.6,16.94-98,.64-2.92.57-6.83,5.54-5.61a4.78,4.78,0,0,1,1.22,4.08A9.63,9.63,0,0,0,353.06,506.91Z" transform="translate(51.09 52.2)"/><path class="cls-3" d="M353.06,506.91c-5.26-.2-6.89-3.05-6.11-8a38.29,38.29,0,0,0,.05-5.87c1.77-2.05,4-1,6.06-.86,33,2.55,74.19-12.15,93.62-46.2,15-26.28,10.3-60.92-10.65-82.81s-46.94-31.25-76.62-31.95c-3.33-.08-6.66,0-10,0-1.35,0-3.4.37-2.46-2.27-2.79-8.88,0-11.93,10.09-11.13,35.32,0,65.94,11.17,90.19,37.7a83.77,83.77,0,0,1-.17,112.82C423.58,494,394,505.23,359.79,506,357.53,506,355.09,505.12,353.06,506.91Z" transform="translate(51.09 52.2)"/><path class="cls-1" d="M347,329c.78,2.67,2.85,1.06,4.16,1a128.35,128.35,0,0,1,31.8,2.24,104.44,104.44,0,0,1,18.16,5.44,100.13,100.13,0,0,1,17.63,9.25,104.66,104.66,0,0,1,16.1,12.86,74.83,74.83,0,0,1,15.77,22.09,68.22,68.22,0,0,1,4.84,14.9,75.93,75.93,0,0,1,1.43,16.72,73.3,73.3,0,0,1-3,19.58,69.78,69.78,0,0,1-13.14,24.45,96.73,96.73,0,0,1-21.81,19.18,100.07,100.07,0,0,1-27.44,12.68,113.57,113.57,0,0,1-23.33,4.14c-4,.3-8.14.4-12.29.33-3-.05-5.81-1.65-8.86-.81-3.25-.8-3.42,1.55-3.88,3.73-6.53,30.93-11,62.23-16,93.41q-12.54,77.52-24.87,155.06c-2.49,15.59-4.82,31.21-7.26,46.81a40.63,40.63,0,0,1-1.36,4.61c-2.47-6-1.87-11.67-2.46-17-2.7-25-4.89-50-7.38-75-3.17-31.95-6.5-63.87-9.67-95.81-2.49-25-4.62-50-7.32-75-1.91-17.68-4.58-35.28-6.72-52.94-.41-3.42-2-2.84-4.37-2.5-19,2.64-36.47,9.94-54,17.21-15.67,6.5-31.52,12.54-47.3,18.77a30.38,30.38,0,0,1-3.17.74c5.44-5.72,10-10.49,14.48-15.24,15.19-15.9,30.46-31.72,45.52-47.74,3.28-3.49,5.73-7.75,8.75-11.51,2.07-2.58,2.19-3.81-1.43-5.1A598.91,598.91,0,0,0,154.14,416c-36.26-8.54-72.41-17.56-108.61-26.36C34.71,387,23.87,384.46,13,381.86c-.6-1.23.37-1.46,1.16-1.81q41.36-2.51,82.71-5c13.46-.8,27-1.24,40.38-2.34,24.18-2,48.51-2.13,72.5-6.45,4.74-.86,4.57-2.63,3.45-6.3-9.9-32.25-19.2-64.69-31.14-96.28-.45-1.18-1.3-2.38-.75-4.13,1.81.18,2.53,1.76,3.53,2.87q25.71,28.6,51.39,57.25c7.49,8.34,16.41,15.1,24.68,22.58,2.79,2.52,3.33.84,4.18-1.68,5.22-15.56,7.44-31.71,9.79-47.85,4-27.78,8.28-55.53,12.38-83.3,2.91-19.73,5.71-39.48,8.62-59.21q6.7-45.37,13.48-90.73c1.88-12.66,3.69-25.32,5.55-38,.18-1.24-.29-2.75,1.42-3.47,1.93,1.18,1.35,3.19,1.51,4.88q3.53,38.74,6.95,77.5c2.17,25,4.14,50.06,6.34,75.09,1.79,20.37,3.84,40.72,5.66,61.08,1.53,17.06,2.81,34.15,4.34,51.21,1.12,12.41,2.45,24.81,3.77,37.21C345.1,326.5,344.53,328.58,347,329Z" transform="translate(51.09 52.2)"/><path class="cls-4" d="M14.2,380.05,13,381.86c-.8-.15-2.4.5-2.13-.84C11.22,379.51,12.94,379.9,14.2,380.05Z" transform="translate(51.09 52.2)"/></svg>