<svg xmlns="http://www.w3.org/2000/svg" viewBox="0 0 219.24 219.23"><defs><style>.cls-1{fill:#fff;}</style></defs><title>Asset 1</title><g id="Layer_2" data-name="Layer 2"><g id="Layer_1-2" data-name="Layer 1"><path class="cls-1" d="M0,109.55A110.71,110.71,0,0,1,1.71,90.16a108.81,108.81,0,0,1,15.12-39,109.9,109.9,0,0,1,48-41.67,108.54,108.54,0,0,1,20.3-6.79A109.88,109.88,0,0,1,109.6,0c3.72,0,7.39.19,11,.55a110,110,0,0,1,33.12,8.62A109,109,0,0,1,184,28.88a108.67,108.67,0,0,1,34.6,68.6,111.65,111.65,0,0,1,.64,12.06,113.85,113.85,0,0,1-2.2,22.2,110.09,110.09,0,0,1-7.16,22.65,108.52,108.52,0,0,1-62.57,58.31,111.19,111.19,0,0,1-37.58,6.53,114.18,114.18,0,0,1-17.28-1.31,108.68,108.68,0,0,1-46.93-19.19A109.93,109.93,0,0,1,0,109.55Z"/></g></g></svg>