<svg id="Layer_1" data-name="Layer 1" xmlns="http://www.w3.org/2000/svg" viewBox="0 0 382 383"><defs><style>.cls-1{fill:#9a9a9a;}.cls-2{fill:#9f9f9f;}.cls-3{fill:#fff;}.cls-4{fill:#fefefe;}.cls-5{fill:#6da3a5;}.cls-6{fill:#6ba2a3;}.cls-7{fill:#cbdfdf;}.cls-8{fill:#adcbcc;}.cls-9{fill:#9fc3c4;}.cls-10{fill:#e1ecec;}.cls-11{fill:#e2eded;}.cls-12{fill:#9ac0c2;}</style></defs><title>shape_svg_whole</title><path class="cls-1" d="M0,1V0A5.28,5.28,0,0,1,2.7-.24H379.18c3.43,0,3.07-.35,3.07,3.07q0,188.75,0,377.48A5.28,5.28,0,0,1,382,383q-189.87,0-379.75,0c-1,0-2.65.75-2.25-1.48a11,11,0,0,1,4-.24q182.85,0,365.7,0a56.91,56.91,0,0,0,7.93-.87,2.38,2.38,0,0,0,2.3-2.22,59.53,59.53,0,0,0,.88-6.68q0-180.09,0-360.2a55.11,55.11,0,0,0-.9-6.67,2.27,2.27,0,0,0-2.19-2A56.07,56.07,0,0,0,370,1.72q-182.71,0-365.44,0C3,1.73,1.36,2.21,0,1Z"/><path class="cls-2" d="M0,1,70.74,1h306c.92,0,1.83,0,2.75,0,1.33,0,2,.57,2,1.93,0,.75,0,1.5,0,2.25V377.89c0,4.11,0,4.11-4.11,4.11H4.18A9,9,0,0,1,0,381.5Z"/><path class="cls-3" d="M382,383q0-190.08.05-380.15c0-2.29-.61-2.9-2.9-2.9Q189.58,0,0,0C.11-.15-.25-.52.25-.51c.67,0,1.33,0,2,0q189,0,378-.05c1.87,0,2.3.43,2.3,2.3q-.07,189.5-.08,379C382.47,381.48,383.05,382.45,382,383Z"/><path class="cls-4" d="M381,191.38V377.87c0,3.64,0,3.64-3.64,3.64H4.63c-3.8,0-3.81,0-3.81-3.76V5.27c0-3.92,0-3.92,3.93-3.92q186.24,0,372.48,0c3.76,0,3.77,0,3.77,3.79Z"/><path class="cls-5" d="M238.65,216.06A41.4,41.4,0,0,1,214.83,223c-2.5,0-3.19.8-3.55,3.16-3.72,24-7.57,48-11.38,72-2.53,15.85-5,31.71-7.62,47.56-.62,3.77-1.55,7.49-2.33,11.24-.21.35-.34.86-.94.55-4.31-12.58-5.28-25.7-6.53-38.8-2-21.13-4.24-42.24-6.36-63.36-1.18-11.68-2.32-23.37-3.5-35-.3-3-.35-3-3.31-1.86q-14.16,5.65-28.29,11.34c-5,2-10.32,3.22-15.52,4.73-.65.38-1.06.3-1.1-.55a253.63,253.63,0,0,1,28.66-33.26c1.9-1.85,1.83-2.07-.66-2.67-18.53-4.5-37-9.1-55.61-13.42a311,311,0,0,1-31.54-9.5,11.7,11.7,0,0,1-1.37-.76c4.48-1.52,8.75-2,12.95-2.81,10-1.83,20.22-1.83,30.35-2.5q21.93-1.47,43.89-2.71c2.39-.13,2.51-1,1.84-2.94-3.36-9.49-6.56-19-10-28.51-2.15-5.89-3.34-12-4.63-18.19,1.33-.33,1.85.72,2.52,1.31,11.75,10.4,22.15,22.11,32.54,33.83.48.53.84,1.51,1.66,1.31s.58-1.27.68-1.95q3.21-21.36,6.37-42.73,4-27.18,8-54.37c1.7-11.53,3.66-23,6.37-34.37a5,5,0,0,1,1.24-3c.86,4.09,1.47,8,2.51,11.81,3.76,13.84,4.54,28.07,5.79,42.24q3,34.71,6.08,69.43c.27,3.07.7,6.13.83,9.2.07,1.7.8,2.39,2.35,2.51,0,.16-.07.41-.18.43a18.8,18.8,0,0,0-6.55,3.25c-1.7-1.52-1.39-3.67-1.57-5.57-1.58-16.15-2.85-32.32-4.39-48.47Q201,85.78,199.79,70c-.65-8.54-1.72-17-2.15-25.61-.06-1.18.13-2.32.11-3.47V40c-.22,7.51-1.71,14.86-2.79,22.26q-4.12,28.27-8.29,56.55c-1.63,11-3.24,22-5,33.07a36.59,36.59,0,0,1-2.15,7.94c-1,2.52-2.21,2.9-4.36,1.27a77,77,0,0,1-10.2-9.5c-5.37-5.91-10.59-12-16.18-18,4.22,10.69,7.23,21.59,10.42,32.42,1.1,3.72.4,4.91-3.33,5.51a126.1,126.1,0,0,1-15.63,1.55c-12.71.43-25.37,1.84-38.09,2.19-5.72.16-11.42,1.09-17.12.67h.26c3.6-.14,6.91,1.17,10.3,1.95,15.34,3.53,30.59,7.44,45.9,11.11a166.68,166.68,0,0,1,18.31,5.88c3,1.1,3.43,2.42,1.54,5.06a45.68,45.68,0,0,1-5.45,6.5c-5.64,5.43-10.57,11.53-16.28,16.95a44,44,0,0,0,7.4-2.64c4.43-1.71,8.85-3.45,13.19-5.37a56.3,56.3,0,0,1,13.69-3.76c2.28-.38,3.34.5,3.7,2.85,2.18,14.33,3.49,28.75,4.91,43.16,1.26,12.75,2.59,25.49,3.72,38.25.83,9.37,1.89,18.71,2.83,28.06.2,2-.07,4,.12,6-.05.26-.15.52-.18.78v.2a3.13,3.13,0,0,1,.14-.79c0-7,1.68-13.69,2.75-20.48,2.12-13.47,4.18-26.95,6.39-40.41,2.52-15.26,4.69-30.58,7.59-45.78.27-1.39.61-2.77,1-4.12.7-2.35,2.12-2.78,4.28-1.39a1.51,1.51,0,0,1,.1,1.21c-.59,1.64.24,2.14,1.7,2.12A49.82,49.82,0,0,0,224.84,220a51.89,51.89,0,0,0,10.49-4C236.38,215.49,237.56,214.6,238.65,216.06Z"/><path class="cls-6" d="M238.65,216.06c-1.63.16-2.94,1.1-4.34,1.8a46.19,46.19,0,0,1-19.41,4.64c-.91,0-1.82,0-2.73.14s-2.07,1.28-2.44-.31c-.31-1.35-1.08-3.24,1.3-3.84.91-1.58,2.47-1.12,3.82-1.16,8.55-.25,16.42-2.57,23.29-7.79,5-3.81,8.91-8.52,10.66-14.7a25.1,25.1,0,0,0-4.92-23.94c-7.38-9-17.27-12.91-28.74-13.2-1.42,0-2.83.05-4.24-.12-1.18-.15-2.13-.54-1.92-2,.2-3.4.6-3.76,4-3.61.73,0,1.47,0,2.21,0,16.63-.4,36.18,10.8,39.94,29.25a30.78,30.78,0,0,1-4.92,24.05A32.69,32.69,0,0,1,238.65,216.06Z"/><path class="cls-7" d="M189,357.49l.94-.55c0,.58.34,1.36-.55,1.5C189,358.49,189,357.88,189,357.49Z"/><path class="cls-8" d="M124.4,234l1.1.55c-.51.42-1.11.93-1.69.34C123.52,234.54,124,234.15,124.4,234Z"/><path class="cls-3" d="M209,155.56c.89,1.39,2.27.81,3.43.77a45.14,45.14,0,0,1,13,1.37,37.93,37.93,0,0,1,14.26,7.22,30.75,30.75,0,0,1,7.71,8.85,27.85,27.85,0,0,1,3.79,14.1A26.39,26.39,0,0,1,247.35,201a35.46,35.46,0,0,1-10,10.64,39.88,39.88,0,0,1-11.88,5.4A46.64,46.64,0,0,1,211,218.49c-1.92-.74-2.77-.17-3.23,1.94-2.63,12.14-4.28,24.43-6.27,36.67-3.75,23.08-7.36,46.18-11,69.27-.27,1.72-.64,3.43-1,5.14-1,.32-.59-.76-1-1-1.54-15.41-3-30.83-4.62-46.24-2.44-23.27-4.34-46.59-7.42-69.79-.23-1.74-.85-1.81-2.45-1.6-9.67,1.29-18.13,6-27.09,9.32-3.7,1.36-7.34,2.86-11,4.3l-.33-.56c2.57-2.69,5.12-5.4,7.7-8.08q6.33-6.57,12.68-13.12a66.55,66.55,0,0,0,4.57-5.61c1.25-1.62,1.21-2.31-.9-3.05a264.34,264.34,0,0,0-26.36-7.72c-15.56-3.65-31.07-7.51-46.61-11.29-.73-.18-1.44-.41-2.16-.61-.36-.23-.82-.41-.52-1,10.79-.94,21.61-1.35,32.41-2.12,12.7-.9,25.45-1.21,38.1-2.84.49-.06,1-.11,1.48-.2,3.18-.56,3.12-.54,2.19-3.61-3.56-11.88-7.06-23.78-11.44-35.4a7.37,7.37,0,0,1-.23-1.19c1-.34,1.23.48,1.61.91,6.31,7,12.62,14,18.86,21,2.78,3.13,6.13,5.62,9.16,8.47,1.38,1.29,1.82.63,2.3-.82,2.57-7.73,3.2-15.81,4.4-23.79q4.76-31.47,9.37-63,2.46-16.68,4.86-33.36c.48-.62-.17-1.62.72-2.18.91.78.16,1.9.66,2.69l3.18,36.79q1.42,16.41,2.87,32.82,2,21.87,4,43.74A15.23,15.23,0,0,0,209,155.56Z"/><path class="cls-9" d="M198.43,40.06l-.68-2-.7,1.44c-.12-1-.25-2.1.77-3A4.52,4.52,0,0,1,198.43,40.06Z"/><path class="cls-10" d="M188.51,330.5l1,1c0,.47-.05.94-.07,1.41-.59.39-.68-.14-.88-.48Z"/><path class="cls-11" d="M84,175.47l.52,1a2.23,2.23,0,0,1-1.87-.76A1.24,1.24,0,0,1,84,175.47Z"/><path class="cls-12" d="M188.56,332.44l.89.48c0,.34-.11.75-.54.59S188.53,332.85,188.56,332.44Z"/></svg>