<svg xmlns="http://www.w3.org/2000/svg" viewBox="0 0 167.31 294.2"><defs><style>.cls-1{fill:#fff;}</style></defs><title>Asset 1</title><g id="Layer_2" data-name="Layer 2"><g id="Layer_1-2" data-name="Layer 1"><path class="cls-1" d="M125.1,118.19c.88,1.38,2.26.81,3.42.77a44.9,44.9,0,0,1,13,1.37,37.79,37.79,0,0,1,14.25,7.21,30.88,30.88,0,0,1,7.71,8.85,27.65,27.65,0,0,1,3.79,14.1,26.26,26.26,0,0,1-3.85,13.14,35.16,35.16,0,0,1-10,10.65,40.08,40.08,0,0,1-11.87,5.4,46.44,46.44,0,0,1-14.49,1.43c-1.92-.74-2.77-.16-3.23,1.95-2.63,12.13-4.27,24.43-6.26,36.67-3.75,23.07-7.36,46.18-11.05,69.26-.27,1.73-.64,3.44-1,5.15-1,.32-.59-.76-1-1-1.53-15.41-3-30.83-4.62-46.23-2.43-23.27-4.34-46.6-7.42-69.8-.23-1.73-.85-1.81-2.44-1.6-9.67,1.29-18.13,6-27.09,9.33-3.7,1.36-7.35,2.86-11,4.29l-.34-.56c2.57-2.69,5.13-5.39,7.71-8.07q6.32-6.57,12.67-13.13a64.64,64.64,0,0,0,4.57-5.61c1.25-1.61,1.21-2.31-.9-3A259.69,259.69,0,0,0,49.39,151c-15.57-3.65-31.08-7.51-46.62-11.29-.72-.18-1.44-.41-2.16-.62-.36-.22-.81-.4-.51-1,10.78-.93,21.61-1.34,32.4-2.11,12.7-.91,25.45-1.22,38.1-2.84.5-.06,1-.12,1.49-.2,3.17-.56,3.11-.55,2.19-3.61-3.57-11.88-7.07-23.78-11.44-35.4a7.28,7.28,0,0,1-.24-1.2c1-.34,1.23.49,1.61.91,6.31,7,12.62,14,18.87,21,2.78,3.14,6.13,5.63,9.16,8.48,1.37,1.29,1.82.62,2.29-.82,2.57-7.73,3.2-15.82,4.41-23.79q4.74-31.49,9.36-63c1.64-11.11,3.24-22.24,4.87-33.36.47-.61-.18-1.61.72-2.17.91.78.15,1.89.66,2.69q1.59,18.39,3.18,36.79c1,10.94,1.88,21.88,2.86,32.82q2,21.87,4,43.73A15.08,15.08,0,0,0,125.1,118.19Z"/></g></g></svg>