<svg id="Layer_1" data-name="Layer 1" xmlns="http://www.w3.org/2000/svg" viewBox="0 0 381.65 381.67"><defs><style>.cls-1{fill:#fefefe;}.cls-2{fill:#9f9f9f;}.cls-3{fill:#989898;}.cls-4{fill:#f1f0f0;}.cls-5{fill:#6ca3a3;}.cls-6{fill:#fff;}</style></defs><title>square_svg</title><path class="cls-1" d="M478,524.5c-.11.15.25.52-.25.51-.67,0-1.33,0-2,0q-188.5,0-377,0c-1.87,0-2.3-.43-2.3-2.3q.08-188.5.08-377c0-.73-.58-1.7.47-2.25a2.08,2.08,0,0,1,.54,1.36c-.07,1.34,0,2.67,0,4v371.7q0-185.4,0-370.81c0-5-1-5.47,5.45-5.47l370,0c1.54,0,3.18-.4,4.62.58a8.33,8.33,0,0,1,.2,3.22q0,186.6,0,373.2C477.76,522.37,477.49,523.47,478,524.5Z" transform="translate(-96.37 -143.37)"/><path class="cls-2" d="M477.5,145c-1,0-2-.07-3-.07h-373c-4,0-3.62-.43-3.62,3.59q0,186.24,0,372.48c0,1.09.21,2.24-.74,3.27,0-.76-.13-1.53-.13-2.3q0-187.74,0-375.48c0-.67,0-1.33.08-2a1.28,1.28,0,0,1,1.22-.71H475.05A6.29,6.29,0,0,1,478,144v1C477.82,145.24,477.66,145.24,477.5,145Z" transform="translate(-96.37 -143.37)"/><path class="cls-3" d="M478,144H100.74c-1.23,0-2.51-.26-3.66.46,0-.32,0-.65-.08-1q189.38,0,378.75,0C476.48,143.53,477.45,143,478,144Z" transform="translate(-96.37 -143.37)"/><path class="cls-4" d="M477.5,145l.5,0V524.5c-.89-.71-.48-1.71-.48-2.57Q477.49,333.46,477.5,145Z" transform="translate(-96.37 -143.37)"/><path class="cls-5" d="M370,335.29V413c0,3.73-.27,4-4,4H210.34c-3.85,0-4.23-.39-4.23-4.33V257.74c0-4.13.49-4.62,4.56-4.62h154.7c4.34,0,4.64.31,4.64,4.7Z" transform="translate(-96.37 -143.37)"/><path class="cls-6" d="M288.3,257.45c24.92,0,49.83,0,74.74-.05,2.28,0,2.93.58,2.93,2.9q-.11,74.74,0,149.49c0,2.56-.71,3.19-3.22,3.19q-74.62-.12-149.24,0c-2.62,0-3.13-.76-3.12-3.22q.11-74.61,0-149.23c0-2.57.67-3.16,3.18-3.15C238.47,257.49,263.39,257.45,288.3,257.45Z" transform="translate(-96.37 -143.37)"/></svg>